#!OML:ASF F:\VICON\USERDATA\INSTALL\rory3\rory3.ASF
:FULLY-SPECIFIED
:DEGREES
18
root 0.4621241568817579 17.981492407479124 -14.960689536687639 -2.33178220137102 -2.848383538689137 -6.6254080299264215
lfemur -28.172787450587958 0.012933945239315126 -12.660911284793663
ltibia 47.78779173105131
lfoot -7.721099873364197 3.3762916677862442
ltoes -1.598793007818137
rfemur -3.3233875637964463 7.836579468488106 33.998187534646505
rtibia 28.88900537486579
rfoot -18.24628857118347 -8.563804336843722
rtoes 3.6636498088689478
lowerback 11.972782755775986 0.8253413146340841 5.209428617605385
upperback -0.35302924599214847 1.978483786383404 2.013445538777931
thorax -7.005658261602826 0.815678795557246 -1.1570002976346336
lowerneck -15.756102103124405 -3.2090505307877346 -1.7973203376876454
upperneck 22.388303022487214 -3.9748536180265766 -0.18836469531155578
head 9.728013487213902 -2.02005059955742 -0.2793042452610879
lclavicle -2.7026064766780004e-15 -2.3230482077047438e-15
lhumerus -35.26749129054044 6.91097288619609 81.60649834501373
lradius 24.87329923295042
lwrist 3.054400545842722
lhand -26.241205339777732 22.331103800834708
lfingers 7.125020000000001
lthumb 0.31279966007146154 52.31070375793557
rclavicle -2.7026064766780004e-15 -2.3230482077047438e-15
rhumerus -24.509407617147865 -12.49881321610347 -81.42069062456235
rradius 28.29489291540581
rwrist -0.3728847689750081
rhand -18.55049740620484 21.926902352704555
rfingers 7.125020000000001
rthumb 7.73905259249768 -7.9114375621982385
19
root 0.45587130818172705 17.945694643571276 -14.142289899980007 -1.5145586892635028 -2.749384010286665 -7.220086372866835
lfemur -29.039686867037886 -2.3836708429085496 -11.116613738663814
ltibia 34.95029914756271
lfoot -6.100861618188757 6.401337208400376
ltoes 0.22941852187484058
rfemur 0.14538496506543197 7.922069202251249 34.91718612207573
rtibia 26.170706901415663
rfoot -18.97748768275929 -9.085793062339139
rtoes 2.229622129260782
lowerback 11.215990587750387 1.161694016665241 5.800537063058134
upperback -0.32524779106352975 2.443841724796277 1.956576185386507
thorax -6.4956152096105875 1.0361626550071446 -1.6052983927889743
lowerneck -15.839500865015937 -3.2797086523388184 -1.7570010261841404
upperneck 22.11820477313283 -4.07870215833254 -0.1790217997867802
head 9.648194864226932 -2.062748853879074 -0.2943897879899292
lclavicle -2.702606461822677e-15 -2.323048190822506e-15
lhumerus -35.60459069584962 8.366510045115058 81.0586014336962
lradius 23.074902534471907
lwrist 2.744011346665668
lhand -26.54870411187856 20.035609623806078
lfingers 7.125020000000001
lthumb 0.015811988034796 50.01530957641286
rclavicle -2.702606461822677e-15 -2.323048190822506e-15
rhumerus -22.82161007821051 -10.367515854991598 -82.01028968906932
rradius 30.665888323940628
rwrist -1.8206974580758892
rhand -18.65279658973795 22.564898488043667
rfingers 7.125020000000001
rthumb 7.6402734093423215 -7.277071392431184
20
root 0.4732928866323807 17.862699827807276 -13.282090281827529 -0.5391414330474129 -3.1150622683292593 -7.799974757019179
lfemur -28.525587213102142 -4.708281810783717 -9.256406694510373
ltibia 20.91400725664773
lfoot -6.077421643431123 8.186114577361977
ltoes -6.2833666779515
rfemur 3.0476478975061667 7.339011018043237 35.4289853354014
rtibia 24.625907768948387
rfoot -20.175786226798227 -8.606764231951459
rtoes 0.7567945124345705
lowerback 10.322999829231808 1.6820704614422546 6.313275714614398
upperback -0.42782577848623704 3.1326886731281243 1.939896375037132
thorax -6.025941607689772 1.3702194118435558 -1.9832667867784692
lowerneck -16.13579646631643 -3.2416796633409737 -1.4379564742200226
upperneck 22.06110514322489 -4.052652524485931 -0.37643859220952774
head 9.670794474343515 -2.0444596016181134 -0.41668308105032476
lclavicle -2.7026064337674614e-15 -2.3230481198114785e-15
lhumerus -36.06628988134726 9.386938053328967 80.57670415031617
lradius 21.52730537557214
lwrist 1.7146240025474047
lhand -26.82020302773344 17.435216220214155
lfingers 7.125020000000001
lthumb -0.24644402760783768 47.414816168270576
rclavicle -2.7026064337674614e-15 -2.3230481198114785e-15
rhumerus -20.96121279094958 -9.880166458408347 -82.11538952231166
rradius 31.686486347538512
rwrist -2.348766615208211
rhand -19.720988064323173 21.733703523006255
rfingers 7.125020000000001
rthumb 6.609151936098888 -8.14313616322765
21
root 0.44209324518202703 17.89421117769204 -2.1472790029709063 -1.8275492613703013 -2.489653368601932 0.20606826735123374
lfemur -20.117401241357513 -2.411804030273197 -20.27630056098478
ltibia 25.899646832574653
lfoot -3.9436721481678454 -1.1560684635390581
ltoes -10.647205270530172
rfemur -3.2738509034488654 6.085624950116055 25.39755880407952
rtibia 28.382063582020262
rfoot -20.907025604848123 -9.20602328266524
rtoes -1.5796286271525286
lowerback 10.306469255583403 0.666397099474298 -1.4812522141780267
upperback 0.5183757081077611 1.0741858985269281 1.6381009221903162
thorax -4.915933784382108 0.5203305135525853 0.10086288891355366
lowerneck -16.055712185837624 -3.300092405622414 -1.3570611491227251
upperneck 21.86353392528573 -4.30923064060441 -0.07182633106865785
head 9.514080274178617 -2.097473850130292 -0.40264321194643393
lclavicle -2.7026064543707562e-15 -2.32304814767408e-15
lhumerus -36.99668401947895 9.30225232183919 81.29590367124648
lradius 20.652856938799072
lwrist 5.069785194798005
lhand -26.822674899395345 20.771656906242683
lfingers 7.125020000000001
lthumb -0.12128478175273538 51.011715511333925
rclavicle -2.7026064543684527e-15 -2.3230481476718274e-15
rhumerus -23.07794099349229 -16.183377020123103 -76.61904085328861
rradius 31.49147904648101
rwrist 5.611967490261036
rhand -18.66259011747429 22.014521126309436
rfingers 7.125020000000001
rthumb 7.563941885490965 -8.073803932749057
22
root 0.40011904490598127 17.878721134842536 -2.4818585427151785 -2.783332820084755 -2.1100740825896414 4.025174850458067
lfemur -17.578517879128526 -2.305863540086492 -24.74946092376761
ltibia 27.070822354934933
lfoot 1.8788897970759892 -7.058041992051444
ltoes -7.766556857918066
rfemur -7.6974062614766305 4.089887807500928 20.91625179517484
rtibia 32.2441169606284
rfoot -20.91439417706593 -10.087242335839516
rtoes -2.6318422884033508
lowerback 10.747980504749556 0.3050766505607647 -4.125982995703509
upperback 0.7543236200876579 0.43260169583036123 1.0629218524945905
thorax -5.031712148999979 0.1579635482338598 0.6065016749423606
lowerneck -15.906539153124584 -3.2998037493929924 -1.3689064194070604
upperneck 21.22459742157213 -4.293317612781884 0.21025564480501735
head 9.201411876224695 -2.086042721478909 -0.269775598447764
lclavicle -2.702606454392642e-15 -2.3230481476901897e-15
lhumerus -37.503663194835596 9.54280637765449 81.9521692396923
lradius 20.43985357272356
lwrist 7.40271534634441
lhand -27.304178821816603 21.691189669060073
lfingers 7.125020000000001
lthumb -0.7068870922800268 51.68827259962793
rclavicle -2.7026064543808635e-15 -2.3230481476813466e-15
rhumerus -23.253614775758827 -17.75904503365873 -74.22953480976365
rradius 31.967925510813828
rwrist 11.306860183848665
rhand -18.18408401884038 21.921406360179645
rfingers 7.125020000000001
rthumb 8.103499984469371 -8.017773712121883
23
root 0.3529584226114151 17.851415660893196 -1.716208074770032 -3.146795172618152 -1.708032404341608 4.457885154737446
lfemur -15.870723646842062 -2.419613918889822 -25.76646391646014
ltibia 25.60930282573195
lfoot 5.635312261631539 -7.4332501354096845
ltoes -5.129145867287944
rfemur -11.310971550995614 2.756096861394521 19.064740753326255
rtibia 35.46912232936309
rfoot -20.775889872773945 -10.889212479407206
rtoes -4.352315904905757
lowerback 10.97968920314803 0.2754805764262356 -4.323606259022935
upperback 0.8485050871451689 0.4101569044860719 0.8633767636492813
thorax -5.257546179752401 0.20879549012028087 0.9392464150155214
lowerneck -15.897778807521165 -3.2885144949050122 -1.3593180694861189
upperneck 20.93558968881905 -4.317579025107909 0.2923793394901254
head 9.053166086570865 -2.085305893690947 -0.23491930476900794
lclavicle -2.702606454415288e-15 -2.3230481477065696e-15
lhumerus -37.77094391242358 9.82195102497469 82.25547420412896
lradius 20.90143284590991
lwrist 7.483991546095627
lhand -27.414987072467163 22.740831371738995
lfingers 7.125020000000001
lthumb -0.7466401099860623 52.940586190809825
rclavicle -2.702606454364537e-15 -2.3230481476701266e-15
rhumerus -22.996550444957453 -17.59194943476631 -73.02794030170425
rradius 32.634269657073155
rwrist 13.188566293606616
rhand -17.621481248571975 22.092866719392426
rfingers 7.125020000000001
rthumb 8.554899581809162 -8.046303124399186
24
root 0.30397105038785 17.842425189055884 -1.040893655669171 -2.7500765082422705 -1.6351386887081496 2.4095389795650064
lfemur -15.37604904108667 -2.319889996440324 -24.790703813505253
ltibia 24.17418911045462
lfoot 6.4804006867502375 -6.100918578116611
ltoes -1.823497259965182
rfemur -13.84907471033378 2.342662613360068 19.633840162628516
rtibia 37.97235588352284
rfoot -19.479991082673962 -10.602700044088369
rtoes -6.35434693413344
lowerback 10.929115338452355 0.19166752312875784 -3.2328311761832538
upperback 0.8322784976734771 0.4768777964342219 1.0335129438579338
thorax -5.434959425642681 0.29646583490808986 1.1274681327585783
lowerneck -15.882269313325 -3.274527229390635 -1.4124895335393726
upperneck 20.8904079817671 -4.289076424586865 0.3274327049022454
head 9.038029744543522 -2.069625326031961 -0.20731656942520937
lclavicle -2.702606454414312e-15 -2.323048147706613e-15
lhumerus -38.18968401529775 10.22727229199021 82.28613322219762
lradius 21.409718180109486
lwrist 6.990575412758704
lhand -26.88923291898898 23.85904446583149
lfingers 7.125020000000001
lthumb -0.1270430093418402 54.22237573082264
rclavicle -2.702606454382859e-15 -2.3230481476838307e-15
rhumerus -22.4508286048383 -16.636534613788626 -72.46703337958304
rradius 33.15308501571624
rwrist 11.824236946168696
rhand -17.558672630053017 21.800933349464493
rfingers 7.125020000000001
rthumb 8.764298509096989 -8.208835252727603
